<svg id="Medical_Flat_Filled_Outline" height="512" viewBox="0 0 128 128" width="512" xmlns="http://www.w3.org/2000/svg" data-name="Medical Flat Filled Outline"><path d="m96.03 115.23c-6.12 3.31-20.57 6.18-32.11 6.18-2.69 0-5.55-.16-8.42-.44-2.15-.21-4.32-.5-6.43-.84-7.12-1.14-13.64-2.94-17.26-4.9s-6.15-4.19-3.54-7.72a50.624 50.624 0 0 1 19.41-15.69h32.48a50.624 50.624 0 0 1 19.41 15.69c2.61 3.53.07 5.77-3.54 7.72z" fill="#cae7ef"/><path d="m99.57 107.51a50.666 50.666 0 0 0 -19.411-15.691l-32.459-.01a50.845 50.845 0 0 0 -19.458 15.7c-2.615 3.533-.069 5.773 3.539 7.722 6.117 3.308 20.574 6.173 32.114 6.173h.019c11.54 0 26-2.865 32.114-6.173 3.611-1.948 6.156-4.188 3.542-7.721z" fill="#cae7ef"/><path d="m55.5 120.97c-2.15-.21-4.32-.5-6.43-.84-.28-.53-4.34-7.9-5.26-14.89-.2-1.55.44-1.97 1.86-3.6a33.346 33.346 0 0 1 3.52-3.08s-5.58 1.3-5.29.12a12.8 12.8 0 0 1 3.79-6.86l.01-.01a20.286 20.286 0 0 1 7.8-4.56 25.666 25.666 0 0 0 -1.34 4.57c-2.24 10.92.36 25.84 1.34 29.15z" fill="#78c5ef"/><path d="m72.43 120.96c-2.9.29-5.79.45-8.51.45-2.69 0-5.55-.16-8.42-.44a.17.17 0 0 1 -.07-.01c-1.05-3.84-3.48-18.49-1.2-29.14a24.7 24.7 0 0 1 1.28-4.29c.21-.5.42-.95.59-1.38a9.015 9.015 0 0 0 7.81 4.42h.02a9.049 9.049 0 0 0 7.82-4.44c.17.44.39.89.59 1.4a25.6 25.6 0 0 1 1.27 4.29c2.27 10.66-.14 25.28-1.18 29.14z" fill="#1b89e5"/><path d="m63.92 94.422c1.572 0 2.568 2.22 4.468 3.424.857.527 2.27 1.084 6.1.719a31.732 31.732 0 0 0 -.376-3.961 22.647 22.647 0 0 0 -1.812-5.354c-.159-.438-.333-.872-.54-1.38a9.24 9.24 0 0 1 -15.68 0c-.207.508-.421.942-.58 1.38a23.619 23.619 0 0 0 -1.771 5.35 31.732 31.732 0 0 0 -.376 3.961c3.829.365 5.242-.192 6.1-.719 1.899-1.2 2.895-3.42 4.467-3.42z" fill="#1175ba"/><path d="m68.382 95.781a8.916 8.916 0 0 1 -2.258 2.832 7.944 7.944 0 0 1 -.734.546 2.681 2.681 0 0 1 -2.88.038c-.235-.142-.48-.32-.744-.518a8.43 8.43 0 0 1 -2.314-2.833c.282-2.7 2.9-3.5 4.473-3.5 1.534-.002 4.457 1.248 4.457 3.435z" fill="#3c3854"/><path d="m66.081 98.623a89.356 89.356 0 0 1 3.614 22.566q-2.908.212-5.778.216c-1.911 0-3.849-.075-5.788-.216a89.511 89.511 0 0 1 3.6-22.542l.3-.733c1.781 0 2.236.078 3.906.078z" fill="#3c3854"/><path d="m63.92 92.422c1.572 0 2.568 2.22 4.468 3.424.857.527 2.27 1.084 6.1.719a31.732 31.732 0 0 0 -.376-3.961 22.647 22.647 0 0 0 -1.812-5.354c-.159-.438-.333-.872-.54-1.38a9.24 9.24 0 0 1 -15.68 0c-.207.508-.421.942-.58 1.38a23.619 23.619 0 0 0 -1.771 5.35 31.732 31.732 0 0 0 -.376 3.961c3.829.365 5.242-.192 6.1-.719 1.899-1.2 2.895-3.42 4.467-3.42z" fill="#36b1f2"/><path d="m72.3 120.97c2.15-.21 4.32-.5 6.43-.84.28-.53 4.34-7.9 5.26-14.89.2-1.55-.44-1.97-1.86-3.6a33.346 33.346 0 0 0 -3.52-3.08s5.58 1.3 5.29.12a12.8 12.8 0 0 0 -3.79-6.86l-.01-.01a20.286 20.286 0 0 0 -7.8-4.56 25.666 25.666 0 0 1 1.34 4.57c2.24 10.92-.36 25.84-1.34 29.15z" fill="#78c5ef"/><path d="m55.5 120.97c-2.15-.21-4.3-.49-6.41-.83 0 0-4.36-7.91-5.28-14.9-.2-1.55.44-1.97 1.86-3.6a33.346 33.346 0 0 1 3.52-3.08s-5.58 1.3-5.29.12a12.777 12.777 0 0 1 3.8-6.87 20.286 20.286 0 0 1 7.8-4.56c-4.39 10.78-1.13 29.92 0 33.72z" fill="#78c5ef"/><path d="m71.77 85.89c-1.08 3.77-4.5 5.11-7.86 5.11a8.733 8.733 0 0 1 -7.83-5.13 17.087 17.087 0 0 0 .85-2.79 13.431 13.431 0 0 0 .28-2.15h13.4a13.952 13.952 0 0 0 .25 1.97 17.065 17.065 0 0 0 .91 2.99z" fill="#ff7364"/><path d="m70.86 82.9a11.4 11.4 0 0 1 -7.08 2.27 11.518 11.518 0 0 1 -6.85-2.09 13.431 13.431 0 0 0 .28-2.15h13.4a13.952 13.952 0 0 0 .25 1.97z" fill="#ed4850"/><path d="m33.212 51.071a7.273 7.273 0 0 0 -1.325 7.341c1.3 3.465 5.139 6.056 8.638 5.06a3.367 3.367 0 0 1 .917-.148 3.058 3.058 0 0 0 3.058-3.058v-5.242c0-4.6-2.906-6.68-7.833-5.9a7.509 7.509 0 0 0 -3.455 1.947z" fill="#ff7364"/><path d="m94.663 51.071a7.27 7.27 0 0 1 1.325 7.341c-1.3 3.465-5.139 6.056-8.638 5.06a3.367 3.367 0 0 0 -.917-.148 3.058 3.058 0 0 1 -3.058-3.058v-5.242c0-4.6 2.907-6.68 7.833-5.9a7.509 7.509 0 0 1 3.455 1.947z" fill="#ff7364"/><path d="m88.478 50.8c-.139 2.162-.68 6.8-1.073 9.8a24.124 24.124 0 0 1 -3.743 10.35 26.443 26.443 0 0 1 -13.016 9.971 20.585 20.585 0 0 1 -6.708 1.3 20.585 20.585 0 0 1 -6.709-1.3 26.448 26.448 0 0 1 -13.016-9.971 24.124 24.124 0 0 1 -3.743-10.35c-.306-2.337-.7-5.666-.927-8.046-.069-.725-.626-8.688-.626-8.688 0-8.32 6.916-26.866 27.211-26.866 24.446 0 22.35 33.8 22.35 33.8z" fill="#ff977b"/><path d="m55.062 34.97c-.443 6.569-6.974 15.13-15.622 16.45a15.055 15.055 0 0 1 -6.295-.367 14.067 14.067 0 0 1 -1.431-.452c-12.205-4.489-11.142-23.771 5.986-33.539 12.835-7.331 23.676-12.977 34.9-9.326s9.871 7.783 19.084 11.227c16.826 6.295 16.61 27.017 1.76 31.073-.367.1-.734.2-1.12.273a22.45 22.45 0 0 1 -3.849.489c-16.3.6-10.455-21.578-17.767-26.688-6.528-4.564-15.091 2.438-15.646 10.86z" fill="#3c3854"/><g fill="#332c44"><path d="m37.16 52.6a16.3 16.3 0 0 1 -4.277-.578 14.978 14.978 0 0 1 -1.518-.479c-5.091-1.873-8.284-6.22-8.759-11.925-.727-8.755 5-17.948 14.6-23.421 13.731-7.847 24.332-13.111 35.706-9.412a27.345 27.345 0 0 1 11.125 6.306 22.771 22.771 0 0 0 8 4.935c8.508 3.184 13.767 10.466 13.4 18.552a15.366 15.366 0 0 1 -11.726 14.422c-.386.108-.779.209-1.192.29a23.708 23.708 0 0 1 -4.008.507c-10.918.385-12.728-8.893-14.188-16.36-.883-4.517-1.717-8.783-4.185-10.508a6.954 6.954 0 0 0 -7.255-.45 13.006 13.006 0 0 0 -6.823 10.557c-.479 7.1-7.36 15.985-16.469 17.372a15.731 15.731 0 0 1 -2.431.192zm28.206-45.011c-8.281 0-16.79 4.411-27.166 10.341-10.846 6.183-14.1 15.456-13.6 21.518a11.373 11.373 0 0 0 7.459 10.215 13.164 13.164 0 0 0 1.334.421 14.064 14.064 0 0 0 5.894.347c7.942-1.209 14.351-9.2 14.776-15.528a14.884 14.884 0 0 1 7.955-12.226 8.877 8.877 0 0 1 9.266.614c3.13 2.187 4.039 6.838 5 11.763 1.516 7.758 2.938 15.091 12.157 14.746a21.633 21.633 0 0 0 3.677-.469c.371-.072.712-.16 1.053-.256a13.424 13.424 0 0 0 10.261-12.587c.33-7.2-4.42-13.714-12.1-16.588a24.728 24.728 0 0 1 -8.614-5.3 25.344 25.344 0 0 0 -10.43-5.91 22.179 22.179 0 0 0 -6.922-1.101z"/><path d="m63.982 60.823c-.028 0-2.788-.044-2.788-1.631a1 1 0 0 1 1.831-.556 2.539 2.539 0 0 0 1.915 0 1 1 0 0 1 1.831.557c0 1.56-2.76 1.63-2.789 1.63z"/><path d="m63.982 67.561c-1.847 0-3.281-.721-3.836-1.929a1 1 0 0 1 1.819-.834c.161.352.787.763 2.017.763s1.848-.411 2.009-.763a1 1 0 0 1 1.819.834c-.555 1.208-1.986 1.929-3.828 1.929z"/><path d="m55.843 50.97a1 1 0 0 1 -1-1c0-.876-1.217-1.644-2.605-1.644s-2.6.768-2.6 1.644a1 1 0 0 1 -2 0c0-2.009 2.065-3.644 4.6-3.644s4.605 1.635 4.605 3.644a1 1 0 0 1 -1 1z"/><path d="m79.378 50.97a1 1 0 0 1 -1-1c0-.876-1.217-1.644-2.6-1.644s-2.6.768-2.6 1.644a1 1 0 0 1 -2 0c0-2.009 2.065-3.644 4.6-3.644s4.6 1.635 4.6 3.644a1 1 0 0 1 -1 1z"/><path d="m45.452 41.049a15.108 15.108 0 0 1 11.648-1.826 1.69 1.69 0 0 1 1.2 1.892 1.7 1.7 0 0 1 -1.808 1.446 25.565 25.565 0 0 0 -8.366.492c-1.931.589-2.756.174-3.1-.372a1.223 1.223 0 0 1 .426-1.632z"/><rect height="6.322" rx="2.239" transform="matrix(-1 0 0 -1 105.246 103.044)" width="4.477" x="50.384" y="48.361"/></g><path d="m67.022 52.9h-6.034a1 1 0 0 1 0-2h6.034a1 1 0 0 1 0 2z" fill="#fff"/><path d="m51.9 63.184a10.158 10.158 0 1 1 10.16-10.158 10.17 10.17 0 0 1 -10.16 10.158zm0-18.316a8.158 8.158 0 1 0 8.158 8.158 8.168 8.168 0 0 0 -8.158-8.158z" fill="#fff"/><path d="m82.561 41.049a15.107 15.107 0 0 0 -11.65-1.826 1.69 1.69 0 0 0 -1.194 1.892 1.7 1.7 0 0 0 1.808 1.446 25.564 25.564 0 0 1 8.366.492c1.931.589 2.757.174 3.1-.372a1.223 1.223 0 0 0 -.43-1.632z" fill="#332c44"/><rect fill="#332c44" height="6.322" rx="2.239" width="4.477" x="73.152" y="48.361"/><path d="m76.111 63.184a10.158 10.158 0 1 1 10.158-10.158 10.17 10.17 0 0 1 -10.158 10.158zm0-18.316a8.158 8.158 0 1 0 8.158 8.158 8.168 8.168 0 0 0 -8.158-8.158z" fill="#fff"/><path d="m100.374 106.915a51.815 51.815 0 0 0 -19.69-15.954 21.655 21.655 0 0 0 -7.608-4.521c-.036-.083-.072-.17-.106-.251-.107-.245-.208-.48-.3-.717a13.863 13.863 0 0 1 -.958-3.88 27.365 27.365 0 0 0 12.78-10.083 23.619 23.619 0 0 0 3.13-6.954 6.7 6.7 0 0 0 1.282.129 7.622 7.622 0 0 0 3.143-.7 9.515 9.515 0 0 0 4.877-5.22 8.116 8.116 0 0 0 -2.937-9.564 1 1 0 1 0 -1.08 1.682 6.083 6.083 0 0 1 2.144 7.184 7.479 7.479 0 0 1 -3.83 4.1 5.378 5.378 0 0 1 -3.139.446c.121-.615.231-1.238.314-1.876.134-1.021.278-2.177.417-3.345a7.086 7.086 0 0 1 3.19-2.2 1 1 0 0 0 -.574-1.916 9.517 9.517 0 0 0 -2.276 1.108c.15-1.406.269-2.663.324-3.511a1 1 0 0 0 -2-.129c-.131 2.046-.648 6.545-1.066 9.738a22.989 22.989 0 0 1 -3.579 9.919 25.459 25.459 0 0 1 -12.522 9.581 19.5 19.5 0 0 1 -6.373 1.239 19.488 19.488 0 0 1 -6.373-1.24 25.452 25.452 0 0 1 -12.521-9.58 22.967 22.967 0 0 1 -3.581-9.922c-.373-2.851-.845-6.9-1.023-9.133a1 1 0 1 0 -1.994.159c.064.8.163 1.8.277 2.875a9.52 9.52 0 0 0 -2.275-1.108 1 1 0 0 0 -.574 1.916 7.146 7.146 0 0 1 3.189 2.2c.142 1.189.287 2.351.417 3.346.084.638.193 1.261.315 1.876a5.38 5.38 0 0 1 -3.14-.446 7.479 7.479 0 0 1 -3.83-4.1 6.312 6.312 0 0 1 1.13-6.319 1 1 0 0 0 -1.482-1.344 8.249 8.249 0 0 0 -1.521 8.364 9.515 9.515 0 0 0 4.877 5.22 7.622 7.622 0 0 0 3.143.7 6.781 6.781 0 0 0 1.282-.129 23.568 23.568 0 0 0 3.13 6.954 27.368 27.368 0 0 0 12.787 10.091 14.625 14.625 0 0 1 -1.02 3.9c-.107.271-.227.551-.354.847l-.039.092a21.65 21.65 0 0 0 -7.613 4.525 51.822 51.822 0 0 0 -19.678 15.95 5.136 5.136 0 0 0 -1.17 4.211c.506 2.265 2.83 3.79 5.037 4.982 3.6 1.951 10.175 3.823 17.578 5.008 2.227.36 4.411.645 6.488.848.406.041.824.083 1.192.1 2.563.228 5.029.344 7.329.344 11.545 0 26.162-2.827 32.586-6.3 2.208-1.193 4.532-2.718 5.038-4.983a5.139 5.139 0 0 0 -1.17-4.209zm-42.266-24.666a20.49 20.49 0 0 0 5.829.971 20.479 20.479 0 0 0 5.829-.971 15.646 15.646 0 0 0 .866 3.46 8.118 8.118 0 0 1 -13.441.024 16.788 16.788 0 0 0 .917-3.484zm-25.823 32.1c-1.572-.849-3.7-2.153-4.037-3.659a3.234 3.234 0 0 1 .825-2.587 50.638 50.638 0 0 1 15.227-13.458 14.894 14.894 0 0 0 -1.368 3.793 1.26 1.26 0 0 0 .326 1.216c.2.2.615.623 2.482.494-.339.317-1.2 1.264-1.366 1.449-1.075 1.2-1.786 1.987-1.558 3.771a46.319 46.319 0 0 0 4.448 13.438c-6.371-1.148-11.878-2.777-14.979-4.456zm17.434 4.864c-.947-1.786-4.139-8.147-4.92-14.1-.108-.839.021-1.019 1.061-2.177a37.28 37.28 0 0 1 3.826-3.5l.128-.1a1 1 0 0 0 -.851-1.754 22.4 22.4 0 0 1 -3.906.592 11.436 11.436 0 0 1 3.349-5.654 19.821 19.821 0 0 1 5.45-3.6c-3.04 10.085-.97 25.21.318 30.889-1.451-.161-2.936-.356-4.455-.595zm14.2 1.2c-1.518 0-3.116-.056-4.776-.16a93.131 93.131 0 0 1 3.132-20.023 3.634 3.634 0 0 0 3.27-.044 91.074 91.074 0 0 1 3.143 20.055c-1.629.098-3.237.169-4.768.169zm-3.208-24.293a16.967 16.967 0 0 0 1.38-1.3c.7-.718 1.31-1.338 1.826-1.338s1.143.648 1.814 1.334a17.585 17.585 0 0 0 1.3 1.224 7.882 7.882 0 0 1 -1.6 1.806 6.971 6.971 0 0 1 -.636.472 1.694 1.694 0 0 1 -1.815.017c-.209-.126-.426-.286-.642-.447a7.38 7.38 0 0 1 -1.627-1.768zm10.839 23.9c-.287.027-.577.064-.863.088a92.3 92.3 0 0 0 -3.448-21.208 9.856 9.856 0 0 0 1.474-1.778 5.854 5.854 0 0 0 3.014.455 1 1 0 1 0 -.206-1.989 3.914 3.914 0 0 1 -2.642-.641 10.837 10.837 0 0 1 -1.719-1.523c-.931-.951-1.894-1.935-3.243-1.935s-2.322.986-3.256 1.939a10.471 10.471 0 0 1 -1.786 1.572 3.864 3.864 0 0 1 -2.568.591 1 1 0 0 0 -.213 1.989 6.458 6.458 0 0 0 .689.037 5.717 5.717 0 0 0 2.217-.458 9.34 9.34 0 0 0 1.564 1.841 92.483 92.483 0 0 0 -3.418 21.1c-.139-.012-.275-.02-.415-.033s-.3-.025-.447-.038c-1.245-4.959-3.8-22.313.043-32.145a10.144 10.144 0 0 0 15.173-.017c3.823 9.879 1.292 27.177.05 32.15zm2.108-.215c1.282-5.678 3.337-20.769.31-30.883a19.86 19.86 0 0 1 5.461 3.6 11.458 11.458 0 0 1 3.348 5.654 22.389 22.389 0 0 1 -3.906-.592 1 1 0 0 0 -.851 1.754l.127.1a37.147 37.147 0 0 1 3.825 3.494c1.042 1.158 1.171 1.338 1.063 2.175-.783 5.971-3.972 12.313-4.925 14.106-1.473.231-2.963.421-4.452.587zm25.934-9.111c-.336 1.506-2.465 2.81-4.037 3.66-3.218 1.74-8.8 3.332-14.984 4.449a46.13 46.13 0 0 0 4.448-13.434c.228-1.782-.483-2.573-1.56-3.771-.166-.184-1.026-1.13-1.365-1.447 1.87.13 2.288-.294 2.483-.494a1.255 1.255 0 0 0 .327-1.209 14.942 14.942 0 0 0 -1.373-3.8 50.627 50.627 0 0 1 15.236 13.452 3.234 3.234 0 0 1 .825 2.591z" fill="#332c44"/></svg>